<svg width="204" height="42" viewBox="0 0 204 42" fill="none" xmlns="http://www.w3.org/2000/svg">
<path d="M10.185 33.675C8.87833 33.675 7.67667 33.4183 6.58 32.905C5.48333 32.3917 4.53833 31.68 3.745 30.77C2.975 29.8367 2.36833 28.7517 1.925 27.515C1.505 26.255 1.295 24.9017 1.295 23.455C1.295 21.4483 1.69167 19.5467 2.485 17.75C3.30167 15.9533 4.39833 14.355 5.775 12.955C7.15167 11.555 8.70333 10.4583 10.43 9.665C12.1567 8.87167 13.965 8.475 15.855 8.475C18.0717 8.475 19.8683 8.97667 21.245 9.98C22.645 10.96 23.5783 12.2667 24.045 13.9L19.88 16.56C19.5767 15.3233 18.9583 14.3783 18.025 13.725C17.115 13.0717 16.0417 12.745 14.805 12.745C13.6617 12.745 12.565 13.0367 11.515 13.62C10.4883 14.18 9.57833 14.9383 8.785 15.895C7.99167 16.8517 7.36167 17.9367 6.895 19.15C6.45167 20.3633 6.23 21.6233 6.23 22.93C6.23 24.1433 6.44 25.24 6.86 26.22C7.28 27.2 7.88667 27.9817 8.68 28.565C9.47333 29.125 10.4183 29.405 11.515 29.405C12.705 29.405 13.9067 29.0783 15.12 28.425C16.3333 27.7717 17.535 26.815 18.725 25.555L17.71 30.315C16.4967 31.4583 15.2717 32.31 14.035 32.87C12.7983 33.4067 11.515 33.675 10.185 33.675ZM18.655 24.26H13.93L14.7 20.725H23.415L20.685 33.5H16.695L18.655 24.26ZM72.2717 33.85C70.7784 33.85 69.3667 33.605 68.0367 33.115C66.7301 32.625 65.6801 31.925 64.8867 31.015L67.2317 28.075C68.1184 28.845 69.0284 29.44 69.9617 29.86C70.8951 30.2567 71.8401 30.455 72.7967 30.455C73.4501 30.455 74.0101 30.3617 74.4767 30.175C74.9434 29.965 75.3051 29.6967 75.5617 29.37C75.8184 29.02 75.9467 28.6233 75.9467 28.18C75.9467 27.5967 75.6901 27.165 75.1767 26.885C74.6634 26.605 73.8584 26.3017 72.7617 25.975C71.5484 25.5783 70.5451 25.205 69.7517 24.855C68.9817 24.4817 68.4101 24.05 68.0367 23.56C67.6634 23.0467 67.4767 22.405 67.4767 21.635C67.4767 20.3283 67.8384 19.1617 68.5617 18.135C69.3084 17.1083 70.3001 16.3033 71.5367 15.72C72.7967 15.1133 74.1967 14.81 75.7367 14.81C77.0667 14.81 78.2567 15.02 79.3067 15.44C80.3567 15.8367 81.2901 16.4667 82.1067 17.33L79.6217 20.165C78.8751 19.465 78.1517 18.9633 77.4517 18.66C76.7751 18.3333 76.0284 18.17 75.2117 18.17C74.6051 18.17 74.0567 18.2633 73.5667 18.45C73.1001 18.6133 72.7267 18.87 72.4467 19.22C72.1667 19.57 72.0267 19.99 72.0267 20.48C72.0267 21.0167 72.2367 21.4133 72.6567 21.67C73.1001 21.9033 73.8584 22.1833 74.9317 22.51C76.2384 22.8833 77.3117 23.28 78.1517 23.7C78.9917 24.0967 79.6217 24.575 80.0417 25.135C80.4617 25.695 80.6717 26.4067 80.6717 27.27C80.6717 28.5533 80.3217 29.685 79.6217 30.665C78.9217 31.645 77.9417 32.4267 76.6817 33.01C75.4217 33.57 73.9517 33.85 72.2717 33.85ZM90.5598 33.85C89.0198 33.85 87.6781 33.5233 86.5348 32.87C85.4148 32.1933 84.5514 31.2717 83.9448 30.105C83.3614 28.915 83.0698 27.5733 83.0698 26.08C83.0698 24.5633 83.3614 23.1283 83.9448 21.775C84.5281 20.4217 85.3448 19.2317 86.3948 18.205C87.4448 17.155 88.6698 16.3383 90.0698 15.755C91.4698 15.1483 92.9864 14.845 94.6198 14.845C95.9498 14.845 97.1048 15.0433 98.0848 15.44C99.0648 15.8367 99.8231 16.42 100.36 17.19C100.896 17.9367 101.165 18.8583 101.165 19.955C101.165 21.8917 100.278 23.3617 98.5048 24.365C96.7548 25.3683 94.1181 25.87 90.5948 25.87C89.8948 25.87 89.1364 25.8583 88.3198 25.835C87.5031 25.7883 86.6164 25.7183 85.6598 25.625L86.2548 22.685C87.0948 22.755 87.8648 22.8133 88.5648 22.86C89.2648 22.8833 89.9531 22.895 90.6298 22.895C92.1464 22.895 93.3364 22.79 94.1998 22.58C95.0864 22.37 95.7281 22.0667 96.1248 21.67C96.5214 21.2733 96.7198 20.8067 96.7198 20.27C96.7198 19.8033 96.6031 19.43 96.3698 19.15C96.1364 18.8467 95.8098 18.625 95.3898 18.485C94.9931 18.3217 94.5148 18.24 93.9548 18.24C93.0448 18.24 92.2048 18.4617 91.4348 18.905C90.6881 19.325 90.0348 19.9083 89.4748 20.655C88.9148 21.4017 88.4831 22.2533 88.1798 23.21C87.8764 24.1667 87.7248 25.1817 87.7248 26.255C87.7248 27.0483 87.8531 27.7717 88.1098 28.425C88.3898 29.055 88.7981 29.545 89.3348 29.895C89.8714 30.245 90.5598 30.42 91.3998 30.42C92.3331 30.42 93.2081 30.1983 94.0248 29.755C94.8648 29.3117 95.5298 28.6933 96.0198 27.9L99.7298 29.055C99.1231 29.9883 98.3298 30.8167 97.3498 31.54C96.3698 32.2633 95.2964 32.835 94.1298 33.255C92.9631 33.6517 91.7731 33.85 90.5598 33.85ZM115.694 8.65H131.584L130.674 12.885H119.579L118.249 19.29H127.419L126.579 23.21H117.409L115.204 33.5H110.409L115.694 8.65ZM133.742 33.78C132.575 33.78 131.665 33.5117 131.012 32.975C130.382 32.415 130.067 31.6217 130.067 30.595C130.067 30.385 130.079 30.175 130.102 29.965C130.149 29.7317 130.184 29.4983 130.207 29.265L134.757 7.95H139.412L135.247 27.62C135.224 27.7367 135.2 27.8533 135.177 27.97C135.177 28.0867 135.177 28.2033 135.177 28.32C135.177 29.2767 135.655 29.755 136.612 29.755C136.869 29.755 137.16 29.7083 137.487 29.615C137.837 29.5217 138.164 29.405 138.467 29.265L138.327 32.835C137.674 33.1383 136.915 33.3717 136.052 33.535C135.189 33.6983 134.419 33.78 133.742 33.78ZM144.053 15.16H148.743L144.858 33.5H140.168L144.053 15.16ZM145.593 7.95H150.283L149.303 12.605H144.613L145.593 7.95ZM154.83 41.305C152.917 41.305 151.365 40.9667 150.175 40.29C149.008 39.6367 148.087 38.7033 147.41 37.49L150.49 35.005C150.957 35.8683 151.633 36.545 152.52 37.035C153.407 37.525 154.422 37.77 155.565 37.77C156.475 37.77 157.35 37.5833 158.19 37.21C159.03 36.86 159.765 36.3 160.395 35.53C161.048 34.7833 161.492 33.815 161.725 32.625L162.215 30.315C161.422 31.365 160.442 32.1817 159.275 32.765C158.132 33.325 156.977 33.605 155.81 33.605C154.527 33.605 153.418 33.2783 152.485 32.625C151.575 31.9717 150.887 31.0967 150.42 30C149.953 28.88 149.72 27.6433 149.72 26.29C149.72 24.7733 149.988 23.3267 150.525 21.95C151.085 20.5733 151.843 19.36 152.8 18.31C153.78 17.2367 154.888 16.3967 156.125 15.79C157.385 15.16 158.703 14.845 160.08 14.845C161.433 14.845 162.542 15.1717 163.405 15.825C164.292 16.455 164.945 17.3067 165.365 18.38L166.03 15.16H170.16L166.415 32.625C166.042 34.445 165.295 35.9967 164.175 37.28C163.055 38.5867 161.69 39.5783 160.08 40.255C158.47 40.955 156.72 41.305 154.83 41.305ZM158.225 29.86C158.692 29.86 159.147 29.7783 159.59 29.615C160.057 29.4517 160.5 29.23 160.92 28.95C161.34 28.67 161.725 28.3433 162.075 27.97C162.425 27.5733 162.728 27.1767 162.985 26.78L163.895 22.405C163.802 21.6817 163.58 21.0517 163.23 20.515C162.88 19.9783 162.448 19.57 161.935 19.29C161.445 18.9867 160.897 18.835 160.29 18.835C159.52 18.835 158.797 19.0333 158.12 19.43C157.443 19.8267 156.837 20.3517 156.3 21.005C155.763 21.635 155.343 22.3467 155.04 23.14C154.737 23.9333 154.585 24.75 154.585 25.59C154.585 26.36 154.737 27.0833 155.04 27.76C155.343 28.4133 155.763 28.9267 156.3 29.3C156.86 29.6733 157.502 29.86 158.225 29.86ZM175.842 7.95H180.532L178.257 18.555C179.143 17.3883 180.205 16.4783 181.442 15.825C182.678 15.1717 183.95 14.845 185.257 14.845C186.353 14.845 187.205 15.0433 187.812 15.44C188.442 15.8133 188.885 16.3267 189.142 16.98C189.422 17.61 189.562 18.3333 189.562 19.15C189.562 19.6167 189.527 20.095 189.457 20.585C189.41 21.075 189.328 21.565 189.212 22.055L186.797 33.5H182.107L184.277 23.21C184.347 22.8833 184.393 22.58 184.417 22.3C184.463 22.02 184.487 21.7517 184.487 21.495C184.487 20.6317 184.3 20.0017 183.927 19.605C183.553 19.185 183.028 18.975 182.352 18.975C181.862 18.975 181.29 19.1383 180.637 19.465C180.007 19.7917 179.4 20.2467 178.817 20.83C178.233 21.39 177.755 22.0433 177.382 22.79L175.107 33.5H170.417L175.842 7.95ZM192.333 30.595C192.333 30.385 192.345 30.175 192.368 29.965C192.392 29.755 192.427 29.5333 192.473 29.3L194.713 18.765H192.438L193.208 15.16H195.448L196.708 9.21H201.398L200.138 15.16H203.813L203.043 18.765H199.403L197.478 27.725C197.455 27.8183 197.432 27.9117 197.408 28.005C197.408 28.0983 197.408 28.1917 197.408 28.285C197.408 28.7283 197.537 29.0433 197.793 29.23C198.05 29.4167 198.365 29.51 198.738 29.51C199.042 29.51 199.345 29.475 199.648 29.405C199.975 29.335 200.278 29.2417 200.558 29.125C200.838 29.0083 201.083 28.915 201.293 28.845L201.433 32.555C200.967 32.765 200.442 32.975 199.858 33.185C199.275 33.3717 198.668 33.5233 198.038 33.64C197.408 33.7567 196.778 33.815 196.148 33.815C195.052 33.815 194.142 33.57 193.418 33.08C192.695 32.5667 192.333 31.7383 192.333 30.595Z" fill="#333333"/>
<path d="M40.7988 12.9028L45.7502 14.3322L51.1924 10.3797L43.3821 10.6036C43.3056 10.6078 43.2315 10.6315 43.1668 10.6725L40.6955 12.0933C40.6186 12.1359 40.5562 12.2006 40.5165 12.279C40.4768 12.3574 40.4615 12.4459 40.4727 12.5331C40.4838 12.6203 40.5208 12.7021 40.579 12.768C40.6371 12.8339 40.7137 12.8808 40.7988 12.9028Z" fill="#EAA121"/>
<path d="M65.1423 8.47665L59.7173 7.30554C59.2611 7.20649 58.7889 7.20675 58.3328 7.3063C57.8766 7.40585 57.4472 7.60235 57.0737 7.88249L40.6868 19.7917L36.7515 19.6194C36.5261 19.6118 36.304 19.6751 36.1165 19.8005C35.929 19.9259 35.7857 20.107 35.7067 20.3182C35.6277 20.5295 35.6171 20.7602 35.6763 20.9779C35.7356 21.1955 35.8616 21.389 36.0368 21.5311L39.8687 24.5708C39.9318 24.6217 40.0069 24.6556 40.0868 24.6691C40.1667 24.6827 40.2488 24.6755 40.3251 24.6483C41.4187 24.2264 45.4918 22.065 50.3054 19.4214L51.2698 29.3328C51.278 29.4186 51.3095 29.5006 51.3608 29.5699C51.4122 29.6391 51.4815 29.6931 51.5612 29.7258C51.641 29.7586 51.7282 29.769 51.8134 29.7559C51.8986 29.7428 51.9787 29.7066 52.0448 29.6514L54.1976 27.8603C54.3155 27.7614 54.3947 27.6242 54.4215 27.4728L56.4623 16.0286C59.9068 14.1169 63.1962 12.2655 65.5126 10.9567C65.753 10.8258 65.9474 10.6243 66.0694 10.3793C66.1914 10.1344 66.2352 9.85783 66.1948 9.58716C66.1544 9.31649 66.0317 9.06479 65.8435 8.86615C65.6552 8.66751 65.4105 8.53153 65.1423 8.47665Z" fill="#EAA121"/>
<path d="M48.4168 24.4999C48.4168 24.4999 42.8596 30.3558 38.4168 29.9999C35.63 29.7767 32.9862 29.625 33.4168 26.4999C33.7423 24.1388 35.9168 23.9999 37.4168 24.9999C40.1978 26.8539 39.6276 31.9548 36.4168 33.4999C33.0971 35.0975 29.9931 33.0434 27.9168 29.9999C26.606 28.0786 26.8733 25.2131 27.6453 22.4999C28.7574 18.592 32.9168 15.9999 32.9168 15.9999" stroke="#EAA121" stroke-linecap="round" stroke-linejoin="round" stroke-dasharray="10 5"/>
</svg>
